<?xml version="1.0" standalone="no"?>
<!DOCTYPE svg PUBLIC "-//W3C//DTD SVG 20010904//EN"
 "http://www.w3.org/TR/2001/REC-SVG-20010904/DTD/svg10.dtd">
<svg version="1.0" xmlns="http://www.w3.org/2000/svg"
 width="456.000000pt" height="274.000000pt" viewBox="0 0 456.000000 274.000000"
 preserveAspectRatio="xMidYMid meet">

<g transform="translate(0.000000,274.000000) scale(0.100000,-0.100000)"
fill="#000000" stroke="none">
<path d="M440 1591 c0 -39 1 -40 38 -46 20 -3 85 -17 143 -30 125 -29 125 -29
109 -10 -31 37 -174 104 -252 119 l-38 7 0 -40z"/>
<path d="M995 1615 c-66 -18 -100 -33 -168 -75 -75 -45 -76 -66 -2 -40 51 17
103 29 208 45 36 6 37 7 37 45 0 45 -1 45 -75 25z"/>
<path d="M1907 1524 c-4 -4 -7 -34 -7 -67 0 -53 -2 -58 -17 -51 -44 19 -98 16
-132 -8 -56 -38 -74 -70 -74 -130 0 -65 21 -109 66 -137 38 -23 115 -29 135
-9 8 8 15 8 26 -1 8 -7 32 -11 53 -9 l38 3 0 205 0 205 -40 3 c-23 2 -44 0
-48 -4z m-24 -202 c47 -52 18 -132 -47 -132 -38 0 -63 23 -72 67 -12 62 78
111 119 65z"/>
<path d="M2494 1516 c-110 -48 -94 -178 27 -221 69 -24 89 -41 89 -70 0 -42
-70 -48 -110 -10 -27 26 -27 26 -58 8 -18 -10 -32 -22 -32 -27 0 -4 15 -23 33
-41 68 -68 177 -66 238 3 28 31 31 40 26 81 -6 54 -43 90 -117 118 -56 20 -83
44 -74 66 11 29 52 32 86 7 30 -22 31 -22 64 -4 31 17 32 20 20 39 -20 30 -87
65 -126 64 -19 0 -49 -6 -66 -13z"/>
<path d="M1360 1315 l0 -206 133 3 132 3 0 40 0 40 -82 3 -83 3 0 39 0 40 60
0 60 0 0 40 0 40 -60 0 -60 0 0 40 0 40 80 0 80 0 0 40 0 40 -130 0 -130 0 0
-205z"/>
<path d="M343 1474 c3 -21 14 -123 23 -225 l18 -186 95 -6 c83 -5 184 -27 244
-52 16 -7 17 7 17 213 l0 220 -62 20 c-99 32 -151 42 -249 49 l-92 6 6 -39z"/>
<path d="M934 1490 c-50 -11 -107 -26 -127 -35 l-37 -15 0 -219 0 -219 78 24
c46 15 116 27 174 31 l98 6 5 31 c2 17 12 105 20 196 8 91 17 177 20 193 l5
27 -73 -1 c-39 0 -113 -9 -163 -19z"/>
<path d="M3850 1455 c0 -28 -4 -35 -20 -35 -17 0 -20 -7 -20 -40 0 -33 3 -40
19 -40 17 0 19 -10 23 -96 3 -87 5 -98 27 -115 19 -15 37 -19 75 -17 51 3 51
3 54 40 3 35 2 37 -30 40 l-33 3 -3 73 -3 72 36 0 c36 0 36 1 33 38 -3 34 -6
37 -35 40 -30 3 -33 6 -33 38 0 34 0 34 -45 34 -45 0 -45 0 -45 -35z"/>
<path d="M2050 1321 c0 -70 5 -113 16 -141 27 -67 97 -89 162 -50 l32 20 0
-21 c0 -18 5 -20 48 -17 l47 3 0 150 0 150 -47 3 -48 3 0 -94 c0 -81 -3 -96
-21 -116 -15 -16 -30 -21 -52 -19 l-32 3 -5 110 -5 110 -47 3 -48 3 0 -100z"/>
<path d="M2842 1403 c-89 -44 -113 -158 -50 -238 45 -57 148 -73 208 -32 45
29 47 43 12 61 -24 12 -35 13 -60 4 -90 -34 -152 85 -69 132 22 12 32 12 61 2
30 -11 40 -11 66 3 25 13 29 19 21 34 -25 46 -127 65 -189 34z"/>
<path d="M3167 1399 c-102 -54 -105 -207 -5 -270 26 -16 46 -19 95 -17 56 4
67 8 98 38 134 129 -23 336 -188 249z m122 -76 c53 -45 24 -133 -43 -133 -43
0 -68 28 -68 76 0 64 63 96 111 57z"/>
<path d="M3456 1393 c-11 -50 3 -203 21 -233 30 -52 109 -67 156 -30 14 11 28
20 31 20 3 0 6 -9 6 -20 0 -17 7 -20 45 -20 l45 0 0 155 0 155 -44 0 -44 0 -4
-94 c-4 -109 -18 -136 -73 -136 -42 0 -45 9 -45 131 l0 99 -44 0 c-40 0 -45
-3 -50 -27z"/>
</g>
</svg>
